<svg width="3992" height="2240" xmlns="http://www.w3.org/2000/svg" xmlns:xlink="http://www.w3.org/1999/xlink" xml:space="preserve" overflow="hidden"><defs><clipPath id="clip0"><path d="M1004.32 1950.88 1307.85 1682.64 1039.61 1379.11 736.079 1647.35Z" fill-rule="evenodd" clip-rule="evenodd"/></clipPath><clipPath id="clip1"><path d="M1004.32 1950.88 1307.85 1682.64 1039.61 1379.11 736.079 1647.35Z" fill-rule="evenodd" clip-rule="evenodd"/></clipPath><clipPath id="clip2"><path d="M1004.32 1950.88 1307.85 1682.64 1039.61 1379.11 736.079 1647.35Z" fill-rule="evenodd" clip-rule="evenodd"/></clipPath></defs><g transform="translate(-152 -127)"><g><g><g><path d="M1203.85 1994.65C1193.05 1994.65 1184.79 1986.39 1184.79 1975.58 1184.79 1964.78 1193.05 1956.52 1203.85 1956.52 1214.66 1956.52 1222.92 1964.78 1222.92 1975.58 1222.92 1986.39 1214.66 1994.65 1203.85 1994.65ZM1165.73 2032.77C1154.93 2032.77 1146.67 2024.51 1146.67 2013.71 1146.67 2002.91 1154.93 1994.65 1165.73 1994.65 1176.53 1994.65 1184.79 2002.91 1184.79 2013.71 1184.79 2024.51 1176.53 2032.77 1165.73 2032.77ZM1127.6 1994.65C1116.8 1994.65 1108.54 1986.39 1108.54 1975.58 1108.54 1964.78 1116.8 1956.52 1127.6 1956.52 1138.41 1956.52 1146.67 1964.78 1146.67 1975.58 1146.67 1986.39 1138.41 1994.65 1127.6 1994.65ZM1165.73 1918.4C1176.53 1918.4 1184.79 1926.66 1184.79 1937.46 1184.79 1948.26 1176.53 1956.52 1165.73 1956.52 1154.93 1956.52 1146.67 1948.26 1146.67 1937.46 1146.67 1926.66 1154.93 1918.4 1165.73 1918.4ZM962.396 1988.29 936.979 1988.29 936.979 2013.71C936.979 2020.7 931.26 2026.42 924.271 2026.42 917.281 2026.42 911.563 2020.7 911.563 2013.71L911.563 1988.29 886.146 1988.29C879.156 1988.29 873.438 1982.57 873.438 1975.58 873.438 1968.59 879.156 1962.88 886.146 1962.88L911.563 1962.88 911.563 1937.46C911.563 1930.47 917.281 1924.75 924.271 1924.75 931.26 1924.75 936.979 1930.47 936.979 1937.46L936.979 1962.88 962.396 1962.88C969.385 1962.88 975.104 1968.59 975.104 1975.58 975.104 1982.57 969.385 1988.29 962.396 1988.29ZM1191.15 1823.08C1116.17 1823.08 1154.29 1861.21 1045 1861.21 935.708 1861.21 973.833 1823.08 898.854 1823.08 818.792 1823.08 717.125 2178.92 822.604 2178.92 919.823 2178.92 882.969 2089.96 1045 2089.96 1207.03 2089.96 1170.18 2178.92 1267.4 2178.92 1372.87 2178.92 1271.21 1823.08 1191.15 1823.08Z"/></g></g></g><text font-family="Yu Gothic,Yu Gothic_MSFontService,sans-serif" font-weight="400" font-size="83" transform="matrix(1 0 0 1 795.022 2294)">コントローラ</text><g clip-path="url(#clip0)"><g clip-path="url(#clip1)"><g clip-path="url(#clip2)"><path d="M181.44 210.977 164.562 210.977 164.562 177.22 181.44 177.22 181.44 210.977ZM261.611 105.488C245.155 105.488 232.074 118.569 232.074 135.025L232.074 346.002C232.074 359.926 220.682 371.319 206.757 371.319 193.677 371.319 183.128 361.192 181.44 348.534 191.145 345.158 198.318 335.875 198.318 324.904L198.318 297.055C203.382 294.102 206.757 288.616 206.757 282.709L206.757 135.025C196.63 140.511 185.238 143.464 173.001 143.464 160.764 143.464 149.372 140.511 139.245 135.025L139.245 282.709C139.245 289.038 142.62 294.524 147.684 297.055L147.684 324.904C147.684 335.875 154.857 345.158 164.562 348.956 165.828 370.897 184.394 388.197 206.757 388.197 229.965 388.197 248.953 369.209 248.953 346.002L248.953 135.025C248.953 127.852 254.438 122.367 261.611 122.367 268.784 122.367 274.27 127.852 274.27 135.025L274.27 346.002 291.148 346.002 291.148 135.025C291.148 118.569 278.067 105.488 261.611 105.488Z" transform="matrix(0.749321 -0.662206 -0.662206 -0.749321 1004.32 1950.88)"/><path d="M227.855 71.7321C227.855 102.027 203.296 126.586 173.001 126.586 142.706 126.586 118.147 102.027 118.147 71.7321 118.147 41.4371 142.706 16.8781 173.001 16.8781 203.296 16.8781 227.855 41.4371 227.855 71.7321Z" transform="matrix(0.749321 -0.662206 -0.662206 -0.749321 1004.32 1950.88)"/></g></g></g><text font-family="Yu Gothic,Yu Gothic_MSFontService,sans-serif" font-weight="400" font-size="83" transform="matrix(1 0 0 1 201.662 1710)">小型マイクロホン</text><path d="M1130 1979 1130 1979" stroke="#000000" stroke-width="2.29167" stroke-miterlimit="8" fill="none" fill-rule="evenodd"/><rect x="564.5" y="129.5" width="1055" height="244" stroke="#000000" stroke-width="4.58333" stroke-miterlimit="8" fill="none"/><text font-family="Yu Gothic,Yu Gothic_MSFontService,sans-serif" font-weight="400" font-size="83" transform="matrix(1 0 0 1 1013.46 228)">PC2</text><text font-family="Yu Gothic,Yu Gothic_MSFontService,sans-serif" font-weight="400" font-size="83" transform="matrix(1 0 0 1 720.42 327)">（遅延時間の測定）</text><path d="M719.625 1501.81 718.879 808.918 721.171 808.916 721.917 1501.8ZM706.28 813.515 720 786 733.78 813.485Z"/><path d="M1.14583-1.82988e-06 1.14586 18.3333-1.1458 18.3333-1.14583 1.82988e-06ZM1.14587 25.2083 1.1459 43.5417-1.14576 43.5417-1.14579 25.2083ZM1.14591 50.4167 1.14594 68.75-1.14572 68.75-1.14575 50.4167ZM1.14595 75.625 1.14598 93.9583-1.14568 93.9583-1.14571 75.625ZM1.14599 100.833 1.14602 119.167-1.14564 119.167-1.14567 100.833ZM1.14603 126.042 1.14606 144.375-1.1456 144.375-1.14563 126.042ZM1.14607 151.25 1.1461 169.583-1.14556 169.583-1.14559 151.25ZM1.14612 176.458 1.14614 194.792-1.14552 194.792-1.14555 176.458ZM1.14616 201.667 1.14616 203.067-1.14551 203.067-1.14551 201.667ZM13.7503 198.483 0.000360892 225.983-13.7497 198.483Z" transform="matrix(1 0 0 -1 1465 1011.98)"/><rect x="564.5" y="492.5" width="1055" height="294" stroke="#000000" stroke-width="4.58333" stroke-miterlimit="8" fill="#FFFFFF"/><text font-family="Yu Gothic,Yu Gothic_MSFontService,sans-serif" font-weight="400" font-size="83" transform="matrix(1 0 0 1 885.42 616)">オーディオ</text><text font-family="Yu Gothic,Yu Gothic_MSFontService,sans-serif" font-weight="400" font-size="83" transform="matrix(1 0 0 1 738.754 715)">インターフェース</text><text font-family="Yu Gothic,Yu Gothic_MSFontService,sans-serif" font-weight="400" font-size="83" transform="matrix(1 0 0 1 1398.75 715)">2</text><text font-family="Yu Gothic,Yu Gothic_MSFontService,sans-serif" font-weight="400" font-size="83" transform="matrix(1 0 0 1 513.657 909)">Ch.1</text><text font-family="Yu Gothic,Yu Gothic_MSFontService,sans-serif" font-weight="400" font-size="83" transform="matrix(1 0 0 1 1258.18 906)">Ch.2</text><path d="M1.14583-3.45813e-06 1.14613 96.6632-1.14554 96.6632-1.14583 3.45813e-06ZM13.7503 92.0798 0.000360892 119.58-13.7497 92.0799Z" transform="matrix(1 0 0 -1 1092 492.58)"/><rect x="3026.5" y="950.5" width="1031" height="293" stroke="#000000" stroke-width="4.58333" stroke-miterlimit="8" fill="none"/><text font-family="Yu Gothic,Yu Gothic_MSFontService,sans-serif" font-weight="400" font-size="83" transform="matrix(1 0 0 1 3129.16 1073)">音響信号への遅延生成</text><text font-family="Yu Gothic,Yu Gothic_MSFontService,sans-serif" font-weight="400" font-size="83" transform="matrix(1 0 0 1 3211.66 1172)">アプリケーション</text><path d="M2942.5 939.335C2942.5 898.005 2976 864.5 3017.34 864.5L4066.66 864.5C4108 864.5 4141.5 898.005 4141.5 939.335L4141.5 1238.66C4141.5 1280 4108 1313.5 4066.66 1313.5L3017.34 1313.5C2976 1313.5 2942.5 1280 2942.5 1238.66Z" stroke="#000000" stroke-width="4.58333" stroke-miterlimit="8" fill="none" fill-rule="evenodd"/><rect x="3429" y="798" width="225" height="133" fill="#FFFFFF"/><text font-family="Yu Gothic,Yu Gothic_MSFontService,sans-serif" font-weight="400" font-size="83" transform="matrix(1 0 0 1 3462.37 890)">PC1</text><path d="M1.52235e-06-1.14583 18.3333-1.14581 18.3333 1.14586-1.52235e-06 1.14583ZM25.2083-1.1458 43.5417-1.14578 43.5417 1.14589 25.2083 1.14587ZM50.4167-1.14577 68.75-1.14574 68.75 1.14592 50.4167 1.1459ZM75.625-1.14573 93.9583-1.14571 93.9583 1.14596 75.625 1.14593ZM100.833-1.1457 119.167-1.14567 119.167 1.14599 100.833 1.14597ZM126.042-1.14567 144.375-1.14564 144.375 1.14603 126.042 1.146ZM151.25-1.14563 169.583-1.14561 169.583 1.14606 151.25 1.14603ZM176.458-1.1456 194.792-1.14557 194.792 1.14609 176.458 1.14607ZM201.667-1.14557 220-1.14554 220 1.14613 201.667 1.1461ZM226.875-1.14553 245.208-1.14551 245.208 1.14616 226.875 1.14613ZM244.134-13.7497 271.634 0.000360892 244.134 13.7503Z" transform="matrix(-1 0 0 1 3025.63 1012)"/><path d="M2754 1175.85 3002.72 1175.85 3002.72 1178.15 2754 1178.15ZM2998.13 1163.25 3025.63 1177 2998.13 1190.75Z"/><rect x="1735.5" y="950.5" width="1019" height="294" stroke="#000000" stroke-width="4.58333" stroke-miterlimit="8" fill="#FFFFFF"/><text font-family="Yu Gothic,Yu Gothic_MSFontService,sans-serif" font-weight="400" font-size="83" transform="matrix(1 0 0 1 2038.42 1074)">オーディオ</text><text font-family="Yu Gothic,Yu Gothic_MSFontService,sans-serif" font-weight="400" font-size="83" transform="matrix(1 0 0 1 1891.75 1173)">インターフェース</text><text font-family="Yu Gothic,Yu Gothic_MSFontService,sans-serif" font-weight="400" font-size="83" transform="matrix(1 0 0 1 2551.75 1173)">1</text><path d="M1465 1012 1735.28 1012" stroke="#000000" stroke-width="2.29167" stroke-miterlimit="8" stroke-dasharray="18.3333 6.875" fill="none" fill-rule="evenodd"/><rect x="806.5" y="1092.5" width="810" height="133" stroke="#000000" stroke-width="3.4375" stroke-linejoin="round" stroke-miterlimit="10" fill="#FFFFFF"/><text font-family="Yu Gothic,Yu Gothic_MSFontService,sans-serif" font-weight="400" font-size="83" transform="matrix(1 0 0 1 838.558 1184)">パルスジェネレータ</text><path d="M22.9366-0.631017 113.832 1.4103 113.781 3.70138 22.8852 1.66007ZM27.1844 14.364 0 0 27.8018-13.1291Z" transform="matrix(-1 0 0 1 1735.81 1159)"/><path d="M1.14583-6.94917e-07 1.14618 572.151-1.14549 572.151-1.14583 6.94917e-07ZM13.7503 567.568 0.000360892 595.068-13.7497 567.568Z" transform="matrix(1 0 0 -1 1180 1820.07)"/><path d="M720 1502 992.705 1502" stroke="#000000" stroke-width="2.29167" stroke-miterlimit="8" fill="none" fill-rule="evenodd"/></g></svg>