<svg width="4013" height="2393" xmlns="http://www.w3.org/2000/svg" xmlns:xlink="http://www.w3.org/1999/xlink" xml:space="preserve" overflow="hidden"><defs><clipPath id="clip0"><path d="M974.24 2035.5 1277.77 1767.26 1009.53 1463.73 705.996 1731.97Z" fill-rule="evenodd" clip-rule="evenodd"/></clipPath><clipPath id="clip1"><path d="M974.24 2035.5 1277.77 1767.26 1009.53 1463.73 705.996 1731.97Z" fill-rule="evenodd" clip-rule="evenodd"/></clipPath><clipPath id="clip2"><path d="M974.24 2035.5 1277.77 1767.26 1009.53 1463.73 705.996 1731.97Z" fill-rule="evenodd" clip-rule="evenodd"/></clipPath></defs><g transform="translate(-156 -56)"><g><g><g><path d="M463.854 298.646C453.052 298.646 444.792 290.385 444.792 279.583 444.792 268.781 453.052 260.521 463.854 260.521 474.656 260.521 482.917 268.781 482.917 279.583 482.917 290.385 474.656 298.646 463.854 298.646ZM425.729 336.771C414.927 336.771 406.667 328.51 406.667 317.708 406.667 306.906 414.927 298.646 425.729 298.646 436.531 298.646 444.792 306.906 444.792 317.708 444.792 328.51 436.531 336.771 425.729 336.771ZM387.604 298.646C376.802 298.646 368.542 290.385 368.542 279.583 368.542 268.781 376.802 260.521 387.604 260.521 398.406 260.521 406.667 268.781 406.667 279.583 406.667 290.385 398.406 298.646 387.604 298.646ZM425.729 222.396C436.531 222.396 444.792 230.656 444.792 241.458 444.792 252.26 436.531 260.521 425.729 260.521 414.927 260.521 406.667 252.26 406.667 241.458 406.667 230.656 414.927 222.396 425.729 222.396ZM222.396 292.292 196.979 292.292 196.979 317.708C196.979 324.698 191.26 330.417 184.271 330.417 177.281 330.417 171.562 324.698 171.562 317.708L171.562 292.292 146.146 292.292C139.156 292.292 133.437 286.573 133.437 279.583 133.437 272.594 139.156 266.875 146.146 266.875L171.562 266.875 171.562 241.458C171.562 234.469 177.281 228.75 184.271 228.75 191.26 228.75 196.979 234.469 196.979 241.458L196.979 266.875 222.396 266.875C229.385 266.875 235.104 272.594 235.104 279.583 235.104 286.573 229.385 292.292 222.396 292.292ZM451.146 127.083C376.167 127.083 414.292 165.208 305 165.208 195.708 165.208 233.833 127.083 158.854 127.083 78.7916 127.083-22.875 482.917 82.6041 482.917 179.823 482.917 142.969 393.958 305 393.958 467.031 393.958 430.177 482.917 527.396 482.917 632.875 482.917 531.208 127.083 451.146 127.083Z" transform="matrix(1.00164 0 0 1 722 1765)"/></g></g></g><text font-family="Yu Gothic,Yu Gothic_MSFontService,sans-serif" font-weight="400" font-size="83" transform="matrix(1 0 0 1 780.101 2376)">コントローラー</text><g clip-path="url(#clip0)"><g clip-path="url(#clip1)"><g clip-path="url(#clip2)"><path d="M181.44 210.977 164.562 210.977 164.562 177.22 181.44 177.22 181.44 210.977ZM261.611 105.488C245.155 105.488 232.074 118.569 232.074 135.025L232.074 346.002C232.074 359.926 220.682 371.319 206.757 371.319 193.677 371.319 183.128 361.192 181.44 348.534 191.145 345.158 198.318 335.875 198.318 324.904L198.318 297.055C203.382 294.102 206.757 288.616 206.757 282.709L206.757 135.025C196.63 140.511 185.238 143.464 173.001 143.464 160.764 143.464 149.372 140.511 139.245 135.025L139.245 282.709C139.245 289.038 142.62 294.524 147.684 297.055L147.684 324.904C147.684 335.875 154.857 345.158 164.562 348.956 165.828 370.897 184.394 388.197 206.757 388.197 229.965 388.197 248.953 369.209 248.953 346.002L248.953 135.025C248.953 127.852 254.438 122.367 261.611 122.367 268.784 122.367 274.27 127.852 274.27 135.025L274.27 346.002 291.148 346.002 291.148 135.025C291.148 118.569 278.067 105.488 261.611 105.488Z" transform="matrix(0.749321 -0.662206 -0.662206 -0.749321 974.24 2035.5)"/><path d="M227.855 71.7321C227.855 102.027 203.296 126.586 173.001 126.586 142.706 126.586 118.147 102.027 118.147 71.7321 118.147 41.4371 142.706 16.8781 173.001 16.8781 203.296 16.8781 227.855 41.4371 227.855 71.7321Z" transform="matrix(0.749321 -0.662206 -0.662206 -0.749321 974.24 2035.5)"/></g></g></g><text font-family="Yu Gothic,Yu Gothic_MSFontService,sans-serif" font-weight="400" font-size="83" transform="matrix(1 0 0 1 205.551 1771)">小型マイクロホン</text><path d="M1155 1908 1155 1908" stroke="#000000" stroke-width="2.29167" stroke-miterlimit="8" fill="none" fill-rule="evenodd"/><path d="M963 1434 963 1580.79" stroke="#000000" stroke-width="2.29167" stroke-miterlimit="8" fill="none" fill-rule="evenodd"/><rect x="589.5" y="59.5" width="1055" height="243" stroke="#000000" stroke-width="4.58333" stroke-miterlimit="8" fill="none"/><text font-family="Yu Gothic,Yu Gothic_MSFontService,sans-serif" font-weight="400" font-size="83" transform="matrix(1 0 0 1 1038.62 157)">PC1</text><text font-family="Yu Gothic,Yu Gothic_MSFontService,sans-serif" font-weight="400" font-size="83" transform="matrix(1 0 0 1 745.588 256)">（遅延時間の測定）</text><path d="M848.625 1431.81 847.879 738.918 850.171 738.916 850.917 1431.8ZM835.28 743.515 849 716 862.78 743.485Z"/><path d="M1.14583-1.82988e-06 1.14586 18.3333-1.1458 18.3333-1.14583 1.82988e-06ZM1.14587 25.2083 1.1459 43.5417-1.14576 43.5417-1.14579 25.2083ZM1.14591 50.4167 1.14594 68.75-1.14572 68.75-1.14575 50.4167ZM1.14595 75.625 1.14598 93.9583-1.14568 93.9583-1.14571 75.625ZM1.14599 100.833 1.14602 119.167-1.14564 119.167-1.14567 100.833ZM1.14603 126.042 1.14606 144.375-1.1456 144.375-1.14563 126.042ZM1.14607 151.25 1.1461 169.583-1.14556 169.583-1.14559 151.25ZM1.14612 176.458 1.14614 194.792-1.14552 194.792-1.14555 176.458ZM1.14616 201.667 1.14616 203.067-1.14551 203.067-1.14551 201.667ZM13.7503 198.483 0.000360892 225.983-13.7497 198.483Z" transform="matrix(1 0 0 -1 1377 941.983)"/><rect x="589.5" y="422.5" width="1055" height="294" stroke="#000000" stroke-width="4.58333" stroke-miterlimit="8" fill="#FFFFFF"/><text font-family="Yu Gothic,Yu Gothic_MSFontService,sans-serif" font-weight="400" font-size="83" transform="matrix(1 0 0 1 910.588 546)">オーディオ</text><text font-family="Yu Gothic,Yu Gothic_MSFontService,sans-serif" font-weight="400" font-size="83" transform="matrix(1 0 0 1 763.921 645)">インターフェース</text><text font-family="Yu Gothic,Yu Gothic_MSFontService,sans-serif" font-weight="400" font-size="83" transform="matrix(1 0 0 1 1423.92 645)">1</text><text font-family="Yu Gothic,Yu Gothic_MSFontService,sans-serif" font-weight="400" font-size="83" transform="matrix(1 0 0 1 642.118 826)">Ch.1</text><text font-family="Yu Gothic,Yu Gothic_MSFontService,sans-serif" font-weight="400" font-size="83" transform="matrix(1 0 0 1 1183.86 827)">Ch.2</text><path d="M1.14583-3.45813e-06 1.14613 96.6632-1.14554 96.6632-1.14583 3.45813e-06ZM13.7503 92.0798 0.000360892 119.58-13.7497 92.0799Z" transform="matrix(1 0 0 -1 1117 421.58)"/><rect x="3051.5" y="879.5" width="1032" height="293" stroke="#000000" stroke-width="4.58333" stroke-miterlimit="8" fill="none"/><text font-family="Yu Gothic,Yu Gothic_MSFontService,sans-serif" font-weight="400" font-size="83" transform="matrix(1 0 0 1 3154.33 1003)">音響信号への遅延生成</text><text font-family="Yu Gothic,Yu Gothic_MSFontService,sans-serif" font-weight="400" font-size="83" transform="matrix(1 0 0 1 3236.83 1102)">アプリケーション</text><path d="M2967.5 869.167C2967.5 827.93 3000.93 794.5 3042.17 794.5L4091.83 794.5C4133.07 794.5 4166.5 827.93 4166.5 869.167L4166.5 1167.83C4166.5 1209.07 4133.07 1242.5 4091.83 1242.5L3042.17 1242.5C3000.93 1242.5 2967.5 1209.07 2967.5 1167.83Z" stroke="#000000" stroke-width="4.58333" stroke-miterlimit="8" fill="none" fill-rule="evenodd"/><rect x="3455" y="727" width="224" height="133" fill="#FFFFFF"/><text font-family="Yu Gothic,Yu Gothic_MSFontService,sans-serif" font-weight="400" font-size="83" transform="matrix(1 0 0 1 3487.54 819)">PC2</text><path d="M1.52235e-06-1.14583 18.3333-1.14581 18.3333 1.14586-1.52235e-06 1.14583ZM25.2083-1.1458 43.5417-1.14578 43.5417 1.14589 25.2083 1.14587ZM50.4167-1.14577 68.75-1.14574 68.75 1.14592 50.4167 1.1459ZM75.625-1.14573 93.9583-1.14571 93.9583 1.14596 75.625 1.14593ZM100.833-1.1457 119.167-1.14567 119.167 1.14599 100.833 1.14597ZM126.042-1.14567 144.375-1.14564 144.375 1.14603 126.042 1.146ZM151.25-1.14563 169.583-1.14561 169.583 1.14606 151.25 1.14603ZM176.458-1.1456 194.792-1.14557 194.792 1.14609 176.458 1.14607ZM201.667-1.14557 220-1.14554 220 1.14613 201.667 1.1461ZM226.875-1.14553 245.208-1.14551 245.208 1.14616 226.875 1.14613ZM244.134-13.7497 271.634 0.000360892 244.134 13.7503Z" transform="matrix(-1 0 0 1 3050.63 942)"/><path d="M2779 1105.85 3027.72 1105.85 3027.72 1108.15 2779 1108.15ZM3023.13 1093.25 3050.63 1107 3023.13 1120.75Z"/><rect x="1760.5" y="879.5" width="1019" height="294" stroke="#000000" stroke-width="4.58333" stroke-miterlimit="8" fill="#FFFFFF"/><text font-family="Yu Gothic,Yu Gothic_MSFontService,sans-serif" font-weight="400" font-size="83" transform="matrix(1 0 0 1 2063.59 1003)">オーディオ</text><text font-family="Yu Gothic,Yu Gothic_MSFontService,sans-serif" font-weight="400" font-size="83" transform="matrix(1 0 0 1 1916.92 1102)">インターフェース</text><text font-family="Yu Gothic,Yu Gothic_MSFontService,sans-serif" font-weight="400" font-size="83" transform="matrix(1 0 0 1 2576.92 1102)">2</text><path d="M1377 942 1760 942" stroke="#000000" stroke-width="2.29167" stroke-miterlimit="8" stroke-dasharray="18.3333 6.875" fill="none" fill-rule="evenodd"/><path d="M1139 1103.85 1737.64 1103.85 1737.64 1106.15 1139 1106.15ZM1733.05 1091.25 1760.55 1105 1733.05 1118.75Z"/><rect x="1233.5" y="1038.5" width="400" height="134" stroke="#000000" stroke-width="3.4375" stroke-linejoin="round" stroke-miterlimit="10" fill="#FFFFFF"/><text font-family="Yu Gothic,Yu Gothic_MSFontService,sans-serif" font-weight="400" font-size="83" transform="matrix(1 0 0 1 1265.7 1131)">マイコン</text><path d="M0 0 113.807 2.55584" stroke="#000000" stroke-width="2.29167" stroke-miterlimit="8" fill="none" fill-rule="evenodd" transform="matrix(-1 0 0 1 962.807 1431)"/><path d="M0 0 0.000360892 795.672" stroke="#000000" stroke-width="2.29167" stroke-miterlimit="8" fill="none" fill-rule="evenodd" transform="matrix(1 0 0 -1 1139 1900.67)"/></g></svg>