<svg width="1434" height="1688" xmlns="http://www.w3.org/2000/svg" xmlns:xlink="http://www.w3.org/1999/xlink" xml:space="preserve" overflow="hidden"><defs><clipPath id="clip0"><rect x="339" y="260" width="1434" height="1688"/></clipPath></defs><g clip-path="url(#clip0)" transform="translate(-339 -260)"><path d="M1.14583-7.28135e-07 1.14618 545.003-1.14549 545.003-1.14583 7.28135e-07ZM13.7503 540.42 0.000360892 567.92-13.7497 540.42Z" transform="matrix(1 0 0 -1 822 1301.92)"/><path d="M685.146 1476.92 685.146 1659.04 682.855 1659.04 682.854 1476.92ZM670.25 1481.5 684 1454 697.75 1481.5Z"/><g><g><g><path d="M763.063 1653.63C770.969 1653.63 785.63 1666.5 800.834 1702.8 813.625 1733.32 821.885 1769.94 821.885 1796.1 821.885 1812.64 818.836 1832.38 804.313 1832.38 784.21 1832.38 776.902 1825.04 766.789 1814.9 753.183 1801.24 736.25 1784.25 684 1784.25 631.75 1784.25 614.817 1801.24 601.211 1814.9 591.095 1825.04 583.79 1832.38 563.688 1832.38 558.124 1832.46 553.083 1829.11 551.02 1823.94 547.325 1815.14 545.647 1805.63 546.112 1796.1 546.112 1769.94 554.362 1733.32 567.163 1702.8 582.367 1666.5 597.031 1653.63 604.938 1653.63 621.094 1653.63 625.655 1656.96 631.451 1661.19 639.876 1667.3 649.422 1674.25 684 1674.25 718.578 1674.25 728.124 1667.3 736.549 1661.19 742.345 1656.96 746.906 1653.63 763.063 1653.63M763.063 1646.75C722.5 1646.75 743.125 1667.38 684 1667.38 624.875 1667.38 645.5 1646.75 604.938 1646.75 561.625 1646.75 506.625 1839.25 563.688 1839.25 616.281 1839.25 596.344 1791.13 684 1791.13 771.656 1791.13 751.719 1839.25 804.313 1839.25 861.375 1839.25 806.375 1646.75 763.063 1646.75Z"/><path d="M773.375 1729.25C773.375 1733.05 770.297 1736.13 766.5 1736.13 762.703 1736.13 759.625 1733.05 759.625 1729.25 759.625 1725.45 762.703 1722.38 766.5 1722.38 770.297 1722.38 773.375 1725.45 773.375 1729.25Z"/><path d="M752.75 1749.88C752.75 1753.67 749.672 1756.75 745.875 1756.75 742.078 1756.75 739 1753.67 739 1749.88 739 1746.08 742.078 1743 745.875 1743 749.672 1743 752.75 1746.08 752.75 1749.88Z"/><path d="M732.125 1729.25C732.125 1733.05 729.047 1736.13 725.25 1736.13 721.453 1736.13 718.375 1733.05 718.375 1729.25 718.375 1725.45 721.453 1722.38 725.25 1722.38 729.047 1722.38 732.125 1725.45 732.125 1729.25Z"/><path d="M752.75 1708.63C752.75 1712.42 749.672 1715.5 745.875 1715.5 742.078 1715.5 739 1712.42 739 1708.63 739 1704.83 742.078 1701.75 745.875 1701.75 749.672 1701.75 752.75 1704.83 752.75 1708.63Z"/><path d="M646.188 1725.81 625.563 1725.81 625.563 1705.19C625.563 1703.29 624.024 1701.75 622.125 1701.75 620.227 1701.75 618.688 1703.29 618.688 1705.19L618.688 1725.81 598.063 1725.81C596.164 1725.81 594.625 1727.35 594.625 1729.25 594.625 1731.15 596.164 1732.69 598.063 1732.69L618.688 1732.69 618.688 1753.31C618.688 1755.21 620.227 1756.75 622.125 1756.75 624.024 1756.75 625.563 1755.21 625.563 1753.31L625.563 1732.69 646.188 1732.69C648.086 1732.69 649.625 1731.15 649.625 1729.25 649.625 1727.35 648.086 1725.81 646.188 1725.81Z"/></g></g></g><text font-family="Yu Gothic,Yu Gothic_MSFontService,sans-serif" font-weight="400" font-size="55" transform="matrix(1 0 0 1 516.921 1899)">コントローラ</text><rect x="731.5" y="404.5" width="412" height="100" stroke="#000000" stroke-width="3.4375" stroke-linejoin="round" stroke-miterlimit="10" fill="none"/><text font-family="Yu Gothic,Yu Gothic_MSFontService,sans-serif" font-weight="400" font-size="55" transform="matrix(1 0 0 1 764.407 472)">WAV</text><text font-family="Yu Gothic,Yu Gothic_MSFontService,sans-serif" font-weight="400" font-size="55" transform="matrix(1 0 0 1 886.438 472)">ファイル</text><g><g><g><path d="M1511 1346.12C1438.81 1346.12 1380.38 1404.56 1380.38 1476.75L1380.38 1538.62C1380.38 1544.47 1384.84 1548.94 1390.69 1548.94 1396.53 1548.94 1401 1544.47 1401 1538.62L1401 1535.19 1414.75 1535.19 1414.75 1566.12C1414.75 1573.69 1420.94 1579.88 1428.5 1579.88L1449.13 1579.88C1456.69 1579.88 1462.88 1573.69 1462.88 1566.12L1462.88 1490.5C1462.88 1482.94 1456.69 1476.75 1449.13 1476.75L1428.5 1476.75C1420.94 1476.75 1414.75 1482.94 1414.75 1490.5L1414.75 1521.44 1401 1521.44 1401 1476.75C1401 1416.25 1450.5 1366.75 1511 1366.75 1571.5 1366.75 1621 1416.25 1621 1476.75L1621 1521.44 1607.25 1521.44 1607.25 1490.5C1607.25 1482.94 1601.06 1476.75 1593.5 1476.75L1572.88 1476.75C1565.31 1476.75 1559.13 1482.94 1559.13 1490.5L1559.13 1566.12C1559.13 1573.69 1565.31 1579.88 1572.88 1579.88L1593.5 1579.88C1601.06 1579.88 1607.25 1573.69 1607.25 1566.12L1607.25 1535.19 1621 1535.19 1621 1538.62C1621 1544.47 1625.47 1548.94 1631.31 1548.94 1637.16 1548.94 1641.63 1544.47 1641.63 1538.62L1641.63 1476.75C1641.63 1404.56 1583.19 1346.12 1511 1346.12Z"/></g></g></g><text font-family="Yu Gothic,Yu Gothic_MSFontService,sans-serif" font-weight="400" font-size="55" transform="matrix(1 0 0 1 1378.53 1645)">ヘッドホン</text><rect x="401.5" y="1354.5" width="566" height="100" stroke="#000000" stroke-width="3.4375" stroke-linejoin="round" stroke-miterlimit="10" fill="#FFFFFF"/><text font-family="Yu Gothic,Yu Gothic_MSFontService,sans-serif" font-weight="400" font-size="55" transform="matrix(1 0 0 1 433.615 1422)">パルスジェネレータ</text><rect x="626.5" y="567.5" width="622" height="167" stroke="#000000" stroke-width="3.4375" stroke-linejoin="round" stroke-miterlimit="10" fill="none"/><text font-family="Yu Gothic,Yu Gothic_MSFontService,sans-serif" font-weight="400" font-size="55" transform="matrix(1 0 0 1 662.415 635)">音響信号への遅延生成</text><text font-family="Yu Gothic,Yu Gothic_MSFontService,sans-serif" font-weight="400" font-size="55" transform="matrix(1 0 0 1 717.415 701)">アプリケーション</text><path d="M401.5 418.336C401.5 358.78 449.78 310.5 509.336 310.5L1425.66 310.5C1485.22 310.5 1533.5 358.78 1533.5 418.336L1533.5 849.664C1533.5 909.22 1485.22 957.5 1425.66 957.5L509.336 957.5C449.78 957.5 401.5 909.22 401.5 849.664Z" stroke="#000000" stroke-width="4.58333" stroke-miterlimit="8" fill="none" fill-rule="evenodd"/><rect x="867" y="260" width="141" height="100" fill="#FFFFFF"/><text font-family="Yu Gothic,Yu Gothic_MSFontService,sans-serif" font-weight="400" font-size="55" transform="matrix(1 0 0 1 900.068 327)">PC</text><path d="M1038.15 734 1038.15 743.167 1035.85 743.167 1035.85 734ZM1038.15 750.042 1038.15 759.208 1035.85 759.208 1035.85 750.042ZM1038.15 766.083 1038.15 775.25 1035.85 775.25 1035.85 766.083ZM1038.15 782.125 1038.15 791.292 1035.85 791.292 1035.85 782.125ZM1038.15 798.167 1038.15 807.333 1035.85 807.333 1035.85 798.167ZM1038.15 814.208 1038.15 823.375 1035.85 823.375 1035.85 814.208ZM1038.15 830.25 1038.15 839.417 1035.85 839.417 1035.85 830.25ZM1038.15 846.292 1038.15 855.458 1035.85 855.458 1035.85 846.292ZM1038.15 862.333 1038.15 871.5 1035.85 871.5 1035.85 862.333ZM1038.15 878.375 1038.15 887.542 1035.85 887.542 1035.85 878.375ZM1038.15 894.417 1038.15 903.583 1035.85 903.583 1035.85 894.417ZM1038.15 910.458 1038.15 919.625 1035.85 919.625 1035.85 910.458ZM1038.15 926.5 1038.15 935.667 1035.85 935.667 1035.85 926.5ZM1038.15 942.542 1038.15 951.708 1035.85 951.708 1035.85 942.542ZM1038.15 958.583 1038.15 967.75 1035.85 967.75 1035.85 958.583ZM1038.15 974.625 1038.15 983.792 1035.85 983.792 1035.85 974.625ZM1038.15 990.667 1038.15 999.833 1035.85 999.833 1035.85 990.667ZM1038.15 1006.71 1038.15 1015.87 1035.85 1015.87 1035.85 1006.71ZM1038.15 1022.75 1038.15 1031.92 1035.85 1031.92 1035.85 1022.75ZM1038.15 1038.79 1038.15 1047.96 1035.85 1047.96 1035.85 1038.79ZM1050.75 1043.66 1037 1071.16 1023.25 1043.66Z"/><text font-family="Yu Gothic,Yu Gothic_MSFontService,sans-serif" font-weight="400" font-size="55" transform="matrix(1 0 0 1 372.525 1589)">ボタン押下</text><text font-family="Yu Gothic,Yu Gothic_MSFontService,sans-serif" font-weight="400" font-size="55" transform="matrix(1 0 0 1 487.243 830)">ボタン押下</text><text font-family="Yu Gothic,Yu Gothic_MSFontService,sans-serif" font-weight="400" font-size="55" transform="matrix(1 0 0 1 487.243 896)">間隔の記録</text><path d="M1037 1238.85 1041.47 1238.85 1041.47 1245.85 1039.18 1245.85 1039.18 1240 1040.32 1241.15 1037 1241.15ZM1041.47 1252.72 1041.47 1261.89 1039.18 1261.89 1039.18 1252.72ZM1041.47 1268.76 1041.47 1277.93 1039.18 1277.93 1039.18 1268.76ZM1041.47 1284.8 1041.47 1293.97 1039.18 1293.97 1039.18 1284.8ZM1041.47 1300.85 1041.47 1310.01 1039.18 1310.01 1039.18 1300.85ZM1041.47 1316.89 1041.47 1326.05 1039.18 1326.05 1039.18 1316.89ZM1041.47 1332.93 1041.47 1342.1 1039.18 1342.1 1039.18 1332.93ZM1041.47 1348.97 1041.47 1358.14 1039.18 1358.14 1039.18 1348.97ZM1041.47 1365.01 1041.47 1374.18 1039.18 1374.18 1039.18 1365.01ZM1041.47 1381.05 1041.47 1390.22 1039.18 1390.22 1039.18 1381.05ZM1041.47 1397.1 1041.47 1406.26 1039.18 1406.26 1039.18 1397.1ZM1041.47 1413.14 1041.47 1422.3 1039.18 1422.3 1039.18 1413.14ZM1041.47 1429.18 1041.47 1438.35 1039.18 1438.35 1039.18 1429.18ZM1041.47 1445.22 1041.47 1454.39 1039.18 1454.39 1039.18 1445.22ZM1041.47 1461.26 1041.47 1462.51 1040.32 1461.36 1048.24 1461.36 1048.24 1463.65 1039.18 1463.65 1039.18 1461.26ZM1055.12 1461.36 1064.29 1461.36 1064.29 1463.65 1055.12 1463.65ZM1071.16 1461.36 1080.33 1461.36 1080.33 1463.65 1071.16 1463.65ZM1087.2 1461.36 1096.37 1461.36 1096.37 1463.65 1087.2 1463.65ZM1103.24 1461.36 1112.41 1461.36 1112.41 1463.65 1103.24 1463.65ZM1119.29 1461.36 1128.45 1461.36 1128.45 1463.65 1119.29 1463.65ZM1135.33 1461.36 1144.49 1461.36 1144.49 1463.65 1135.33 1463.65ZM1151.37 1461.36 1160.54 1461.36 1160.54 1463.65 1151.37 1463.65ZM1167.41 1461.36 1176.58 1461.36 1176.58 1463.65 1167.41 1463.65ZM1183.45 1461.36 1192.62 1461.36 1192.62 1463.65 1183.45 1463.65ZM1199.49 1461.36 1208.66 1461.36 1208.66 1463.65 1199.49 1463.65ZM1215.54 1461.36 1224.7 1461.36 1224.7 1463.65 1215.54 1463.65ZM1231.58 1461.36 1240.74 1461.36 1240.74 1463.65 1231.58 1463.65ZM1247.62 1461.36 1256.79 1461.36 1256.79 1463.65 1247.62 1463.65ZM1263.66 1461.36 1272.83 1461.36 1272.83 1463.65 1263.66 1463.65ZM1279.7 1461.36 1288.87 1461.36 1288.87 1463.65 1279.7 1463.65ZM1295.74 1461.36 1304.91 1461.36 1304.91 1463.65 1295.74 1463.65ZM1311.79 1461.36 1320.95 1461.36 1320.95 1463.65 1311.79 1463.65ZM1317.86 1448.76 1345.36 1462.51 1317.86 1476.26Z"/><text font-family="Yu Gothic,Yu Gothic_MSFontService,sans-serif" font-weight="400" font-size="55" transform="matrix(1 0 0 1 1089.74 1369)">出力音声</text><g><g><g><path d="M1517.5 1117.64 1517.5 1017.36 1480.25 1048.41 1451.41 1048.41 1451.41 1086.59 1480.25 1086.59ZM1454.34 1051.34 1481.31 1051.34 1514.56 1023.64 1514.56 1111.36 1481.31 1083.66 1454.34 1083.66Z"/><path d="M1568.91 1067.5C1568.95 1053.49 1563.23 1040.07 1553.08 1030.41L1551.04 1032.53C1570.35 1051.03 1571.01 1081.68 1552.52 1100.99 1552.03 1101.5 1551.54 1101.99 1551.04 1102.47L1553.08 1104.59C1563.23 1094.93 1568.95 1081.51 1568.91 1067.5Z"/><path d="M1539.63 1091.03 1541.64 1093.17C1555.82 1079.86 1556.52 1057.56 1543.2 1043.38 1542.7 1042.85 1542.18 1042.33 1541.64 1041.83L1539.63 1043.97C1552.63 1056.17 1553.27 1076.6 1541.06 1089.6 1540.6 1090.09 1540.12 1090.57 1539.63 1091.03Z"/><path d="M1536.59 1067.5C1536.58 1062.05 1534.25 1056.86 1530.17 1053.24L1528.22 1055.44C1534.88 1061.33 1535.51 1071.51 1529.62 1078.17 1529.18 1078.67 1528.71 1079.13 1528.22 1079.57L1530.17 1081.77C1534.25 1078.15 1536.59 1072.96 1536.59 1067.5Z"/></g></g></g><text font-family="Yu Gothic,Yu Gothic_MSFontService,sans-serif" font-weight="400" font-size="55" transform="matrix(1 0 0 1 1297.69 1178)">電子メトロノーム</text><text font-family="Yu Gothic,Yu Gothic_MSFontService,sans-serif" font-weight="400" font-size="55" transform="matrix(1 0 0 1 1314.58 1244)">(</text><text font-family="Yu Gothic,Yu Gothic_MSFontService,sans-serif" font-weight="400" font-size="55" transform="matrix(1 0 0 1 1335.78 1244)">テンポの提示）</text><path d="M684 1354.48 684 1302 822.577 1302" stroke="#000000" stroke-width="2.29167" stroke-miterlimit="8" fill="none" fill-rule="evenodd"/><rect x="678.5" y="1071.5" width="511" height="167" stroke="#000000" stroke-width="3.4375" stroke-linejoin="round" stroke-miterlimit="10" fill="#FFFFFF"/><text font-family="Yu Gothic,Yu Gothic_MSFontService,sans-serif" font-weight="400" font-size="55" transform="matrix(1 0 0 1 796.006 1139)">オーディオ</text><text font-family="Yu Gothic,Yu Gothic_MSFontService,sans-serif" font-weight="400" font-size="55" transform="matrix(1 0 0 1 713.506 1205)">インターフェース</text></g></svg>