<svg width="3740" height="2014" xmlns="http://www.w3.org/2000/svg" xmlns:xlink="http://www.w3.org/1999/xlink" xml:space="preserve" overflow="hidden"><g transform="translate(-255 -196)"><path d="M2475.29 455.891 3365.9 688.508 3365.33 690.725 2474.71 458.108ZM3364.65 675.154 3387.79 695.407 3357.7 701.761Z"/><path d="M2416.15 1052 2416.15 1220.82 2413.85 1220.82 2413.85 1052ZM2428.75 1216.24 2415 1243.74 2401.25 1216.24Z"/><path d="M3207.15 1061 3207.15 1229.82 3204.85 1229.82 3204.85 1061ZM3219.75 1225.24 3206 1252.74 3192.25 1225.24Z"/><path d="M1764.15 788 1764.15 886.265 1761.85 886.265 1761.85 788ZM1776.75 881.682 1763 909.182 1749.25 881.682Z"/><path d="M2555 912 2555 1746.22" stroke="#000000" stroke-width="2.29167" stroke-miterlimit="8" stroke-dasharray="9.16667 6.875" fill="none" fill-rule="evenodd"/><path d="M838.5 934.667C838.5 922.425 848.424 912.5 860.667 912.5L1605.33 912.5C1617.58 912.5 1627.5 922.425 1627.5 934.667L1627.5 1023.33C1627.5 1035.58 1617.58 1045.5 1605.33 1045.5L860.667 1045.5C848.424 1045.5 838.5 1035.58 838.5 1023.33Z" stroke="#000000" stroke-width="4.58333" stroke-miterlimit="8" fill="none" fill-rule="evenodd"/><text font-family="Yu Gothic,Yu Gothic_MSFontService,sans-serif" font-weight="400" font-size="83" transform="matrix(1 0 0 1 1191.22 1005)">①</text><path d="M1627.5 936.667C1627.5 924.424 1637.42 914.5 1649.67 914.5L2393.33 914.5C2405.58 914.5 2415.5 924.424 2415.5 936.667L2415.5 1025.33C2415.5 1037.58 2405.58 1047.5 2393.33 1047.5L1649.67 1047.5C1637.42 1047.5 1627.5 1037.58 1627.5 1025.33Z" stroke="#000000" stroke-width="4.58333" stroke-miterlimit="8" fill="none" fill-rule="evenodd"/><text font-family="Yu Gothic,Yu Gothic_MSFontService,sans-serif" font-weight="400" font-size="83" transform="matrix(1 0 0 1 1979.8 1007)">②</text><path d="M3204.5 934.668C3204.5 922.425 3214.42 912.5 3226.67 912.5L3970.33 912.5C3982.58 912.5 3992.5 922.425 3992.5 934.668L3992.5 1023.33C3992.5 1035.58 3982.58 1045.5 3970.33 1045.5L3226.67 1045.5C3214.42 1045.5 3204.5 1035.58 3204.5 1023.33Z" stroke="#000000" stroke-width="4.58333" stroke-miterlimit="8" fill="none" fill-rule="evenodd"/><text font-family="Yu Gothic,Yu Gothic_MSFontService,sans-serif" font-weight="400" font-size="83" transform="matrix(1 0 0 1 3556.95 1005)">②</text><path d="M2415.5 937.833C2415.5 925.499 2425.5 915.5 2437.83 915.5L3182.17 915.5C3194.5 915.5 3204.5 925.499 3204.5 937.833L3204.5 1027.17C3204.5 1039.5 3194.5 1049.5 3182.17 1049.5L2437.83 1049.5C2425.5 1049.5 2415.5 1039.5 2415.5 1027.17Z" stroke="#000000" stroke-width="4.58333" stroke-miterlimit="8" fill="none" fill-rule="evenodd"/><text font-family="Yu Gothic,Yu Gothic_MSFontService,sans-serif" font-weight="400" font-size="83" transform="matrix(1 0 0 1 2768.37 1008)">①</text><path d="M838.5 1272.67C838.5 1260.42 848.424 1250.5 860.667 1250.5L1605.33 1250.5C1617.58 1250.5 1627.5 1260.42 1627.5 1272.67L1627.5 1361.33C1627.5 1373.57 1617.58 1383.5 1605.33 1383.5L860.667 1383.5C848.424 1383.5 838.5 1373.57 838.5 1361.33Z" stroke="#000000" stroke-width="4.58333" stroke-miterlimit="8" fill="none" fill-rule="evenodd"/><text font-family="Yu Gothic,Yu Gothic_MSFontService,sans-serif" font-weight="400" font-size="83" transform="matrix(1 0 0 1 1191.22 1343)">②</text><path d="M1627.5 1272.67C1627.5 1260.42 1637.42 1250.5 1649.67 1250.5L2393.33 1250.5C2405.58 1250.5 2415.5 1260.42 2415.5 1272.67L2415.5 1361.33C2415.5 1373.58 2405.58 1383.5 2393.33 1383.5L1649.67 1383.5C1637.42 1383.5 1627.5 1373.58 1627.5 1361.33Z" stroke="#000000" stroke-width="4.58333" stroke-miterlimit="8" fill="none" fill-rule="evenodd"/><text font-family="Yu Gothic,Yu Gothic_MSFontService,sans-serif" font-weight="400" font-size="83" transform="matrix(1 0 0 1 1979.8 1343)">①</text><path d="M2415.5 1272.67C2415.5 1260.42 2425.42 1250.5 2437.67 1250.5L3182.33 1250.5C3194.58 1250.5 3204.5 1260.42 3204.5 1272.67L3204.5 1361.33C3204.5 1373.57 3194.58 1383.5 3182.33 1383.5L2437.67 1383.5C2425.42 1383.5 2415.5 1373.57 2415.5 1361.33Z" stroke="#000000" stroke-width="4.58333" stroke-miterlimit="8" fill="none" fill-rule="evenodd"/><text font-family="Yu Gothic,Yu Gothic_MSFontService,sans-serif" font-weight="400" font-size="83" transform="matrix(1 0 0 1 2768.37 1343)">②</text><path d="M3204.5 1268.67C3204.5 1256.42 3214.42 1246.5 3226.67 1246.5L3970.33 1246.5C3982.58 1246.5 3992.5 1256.42 3992.5 1268.67L3992.5 1357.33C3992.5 1369.58 3982.58 1379.5 3970.33 1379.5L3226.67 1379.5C3214.42 1379.5 3204.5 1369.58 3204.5 1357.33Z" stroke="#000000" stroke-width="4.58333" stroke-miterlimit="8" fill="none" fill-rule="evenodd"/><text font-family="Yu Gothic,Yu Gothic_MSFontService,sans-serif" font-weight="400" font-size="83" transform="matrix(1 0 0 1 3556.95 1339)">①</text><text font-family="Yu Gothic,Yu Gothic_MSFontService,sans-serif" font-weight="400" font-size="83" transform="matrix(1 0 0 1 305.48 1018)">入力バッファ</text><text font-family="Yu Gothic,Yu Gothic_MSFontService,sans-serif" font-weight="400" font-size="83" transform="matrix(1 0 0 1 304.699 1350)">出力バッファ</text><text font-family="Yu Gothic,Yu Gothic_MSFontService,sans-serif" font-weight="400" font-size="64" transform="matrix(1 0 0 1 2464.43 808)">WAV</text><text font-family="Yu Gothic,Yu Gothic_MSFontService,sans-serif" font-weight="400" font-size="64" transform="matrix(1 0 0 1 2607.65 808)">データの挿入</text><text font-family="Yu Gothic,Yu Gothic_MSFontService,sans-serif" font-weight="400" font-size="83" transform="matrix(1 0 0 1 1429.08 747)">ボタンの押下検知</text><text font-family="Yu Gothic,Yu Gothic_MSFontService,sans-serif" font-weight="400" font-size="83" transform="matrix(1 0 0 1 453.465 1700)">再生</text><path d="M838.5 1626.67C838.5 1614.42 848.424 1604.5 860.667 1604.5L1605.33 1604.5C1617.58 1604.5 1627.5 1614.42 1627.5 1626.67L1627.5 1715.33C1627.5 1727.57 1617.58 1737.5 1605.33 1737.5L860.667 1737.5C848.424 1737.5 838.5 1727.57 838.5 1715.33Z" stroke="#000000" stroke-width="4.58333" stroke-miterlimit="8" fill="none" fill-rule="evenodd"/><text font-family="Yu Gothic,Yu Gothic_MSFontService,sans-serif" font-weight="400" font-size="83" transform="matrix(1 0 0 1 1191.22 1697)">①</text><path d="M1627.5 1626.83C1627.5 1614.5 1637.5 1604.5 1649.83 1604.5L2393.17 1604.5C2405.5 1604.5 2415.5 1614.5 2415.5 1626.83L2415.5 1716.17C2415.5 1728.5 2405.5 1738.5 2393.17 1738.5L1649.83 1738.5C1637.5 1738.5 1627.5 1728.5 1627.5 1716.17Z" stroke="#000000" stroke-width="4.58333" stroke-miterlimit="8" fill="none" fill-rule="evenodd"/><text font-family="Yu Gothic,Yu Gothic_MSFontService,sans-serif" font-weight="400" font-size="83" transform="matrix(1 0 0 1 1979.8 1698)">②</text><path d="M2415.5 1626.67C2415.5 1614.42 2425.42 1604.5 2437.67 1604.5L3182.33 1604.5C3194.58 1604.5 3204.5 1614.42 3204.5 1626.67L3204.5 1715.33C3204.5 1727.57 3194.58 1737.5 3182.33 1737.5L2437.67 1737.5C2425.42 1737.5 2415.5 1727.57 2415.5 1715.33Z" stroke="#000000" stroke-width="4.58333" stroke-miterlimit="8" fill="none" fill-rule="evenodd"/><text font-family="Yu Gothic,Yu Gothic_MSFontService,sans-serif" font-weight="400" font-size="83" transform="matrix(1 0 0 1 2768.37 1697)">①</text><path d="M3204.5 1622.83C3204.5 1610.5 3214.5 1600.5 3226.83 1600.5L3970.17 1600.5C3982.5 1600.5 3992.5 1610.5 3992.5 1622.83L3992.5 1712.17C3992.5 1724.5 3982.5 1734.5 3970.17 1734.5L3226.83 1734.5C3214.5 1734.5 3204.5 1724.5 3204.5 1712.17Z" stroke="#000000" stroke-width="4.58333" stroke-miterlimit="8" fill="none" fill-rule="evenodd"/><text font-family="Yu Gothic,Yu Gothic_MSFontService,sans-serif" font-weight="400" font-size="83" transform="matrix(1 0 0 1 3556.95 1694)">②</text><path d="M0.673511-0.926993 665.436 482.059 664.089 483.913-0.673511 0.926993ZM669.137 469.168 683.303 496.457 652.973 491.416Z" transform="matrix(-1 0 0 1 3238.3 752)"/><path d="M1776.92 1804.85 3321.59 1804.85 3321.59 1807.15 1776.92 1807.15ZM1781.5 1819.75 1754 1806 1781.5 1792.25ZM3317.01 1792.25 3344.51 1806 3317.01 1819.75Z"/><path d="M1763 912 1763 1746.22" stroke="#000000" stroke-width="2.29167" stroke-miterlimit="8" stroke-dasharray="9.16667 6.875" fill="none" fill-rule="evenodd"/><path d="M3333 909 3333 1743.22" stroke="#000000" stroke-width="2.29167" stroke-miterlimit="8" stroke-dasharray="9.16667 6.875" fill="none" fill-rule="evenodd"/><text font-family="Yu Gothic,Yu Gothic_MSFontService,sans-serif" font-weight="400" font-size="83" transform="matrix(1 0 0 1 2381.96 1939)">遅延時間</text><path d="M3238.5 715C3238.5 704.783 3246.78 696.5 3257 696.5L3520 696.5C3530.22 696.5 3538.5 704.783 3538.5 715L3538.5 789C3538.5 799.217 3530.22 807.5 3520 807.5L3257 807.5C3246.78 807.5 3238.5 799.217 3238.5 789Z" stroke="#000000" stroke-width="4.58333" stroke-miterlimit="8" fill="#FFFFFF" fill-rule="evenodd"/><text font-family="Yu Gothic,Yu Gothic_MSFontService,sans-serif" font-weight="400" font-size="83" transform="matrix(1 0 0 1 3364.99 778)">1</text><text font-family="Yu Gothic,Yu Gothic_MSFontService,sans-serif" font-weight="400" font-size="64" transform="matrix(1 0 0 1 3453.83 1472)">WAV</text><text font-family="Yu Gothic,Yu Gothic_MSFontService,sans-serif" font-weight="400" font-size="64" transform="matrix(1 0 0 1 3597.05 1472)">データ</text><text font-family="Yu Gothic,Yu Gothic_MSFontService,sans-serif" font-weight="400" font-size="64" transform="matrix(1 0 0 1 3493.36 1549)">再生開始</text><path d="M0.692-0.913274 61.9748 45.5215 60.5908 47.3481-0.692 0.913274ZM65.9337 32.7075 79.5483 60.2748 49.3257 54.6261Z" transform="matrix(-1 0 0 1 3411.55 1535)"/><path d="M22.9214-1.04797 112.658-0.664803 112.648 1.62684 22.9116 1.24367ZM27.441 13.8673 0 0 27.5585-13.6325ZM108.129-13.2884 135.57 0.578871 108.011 14.2113Z" transform="matrix(1 0 0 -1 1629 976.579)"/><path d="M22.9214-1.04797 112.658-0.664803 112.648 1.62684 22.9116 1.24367ZM27.441 13.8673 0 0 27.5585-13.6325ZM108.129-13.2884 135.57 0.578871 108.011 14.2113Z" transform="matrix(1 0 0 -1 2413 982.579)"/><path d="M22.9214-1.04797 112.658-0.664803 112.648 1.62684 22.9116 1.24367ZM27.441 13.8673 0 0 27.5585-13.6325ZM108.129-13.2884 135.57 0.578871 108.011 14.2113Z" transform="matrix(1 0 0 -1 3204 980.579)"/><text font-family="Yu Gothic,Yu Gothic_MSFontService,sans-serif" font-weight="400" font-size="64" transform="matrix(1 0 0 1 2884.49 275)">WAV</text><text font-family="Yu Gothic,Yu Gothic_MSFontService,sans-serif" font-weight="400" font-size="64" transform="matrix(1 0 0 1 3027.71 275)">データ</text><text font-family="Yu Gothic,Yu Gothic_MSFontService,sans-serif" font-weight="400" font-size="83" transform="matrix(1 0 0 1 2250.85 1187)">※1</text><text font-family="Yu Gothic,Yu Gothic_MSFontService,sans-serif" font-weight="400" font-size="83" transform="matrix(1 0 0 1 3052.11 1188)">※1</text><path d="M838 504.854 1965.37 504.855 1965.37 507.146 838 507.146ZM1960.79 492.25 1988.29 506 1960.79 519.75Z"/><text font-family="Yu Gothic,Yu Gothic_MSFontService,sans-serif" font-weight="400" font-size="83" transform="matrix(1 0 0 1 1265.47 451)">時間軸</text><path d="M2281.5 356.167C2281.5 345.857 2289.86 337.5 2300.17 337.5L3852.83 337.5C3863.14 337.5 3871.5 345.857 3871.5 356.167L3871.5 430.833C3871.5 441.143 3863.14 449.5 3852.83 449.5L2300.17 449.5C2289.86 449.5 2281.5 441.143 2281.5 430.833Z" stroke="#000000" stroke-width="4.58333" stroke-miterlimit="8" fill="#FFFFFF" fill-rule="evenodd"/><text font-family="Yu Gothic,Yu Gothic_MSFontService,sans-serif" font-weight="400" font-size="83" transform="matrix(1 0 0 1 2451.66 417)">1</text><text font-family="Yu Gothic,Yu Gothic_MSFontService,sans-serif" font-weight="400" font-size="83" transform="matrix(1 0 0 1 2849.15 418)">2</text><text font-family="Yu Gothic,Yu Gothic_MSFontService,sans-serif" font-weight="400" font-size="83" transform="matrix(1 0 0 1 3253.69 423)">3</text><text font-family="Yu Gothic,Yu Gothic_MSFontService,sans-serif" font-weight="400" font-size="83" transform="matrix(1 0 0 1 3648 423)">4</text><text font-family="Yu Gothic,Yu Gothic_MSFontService,sans-serif" font-weight="400" font-size="83" transform="matrix(1 0 0 1 1649.4 2137)">※1</text><text font-family="Yu Gothic,Yu Gothic_MSFontService,sans-serif" font-weight="400" font-size="83" transform="matrix(1 0 0 1 1860.23 2137)">コールバック関数の呼び出し</text><path d="M3579.5 715C3579.5 704.783 3587.78 696.5 3598 696.5L3861 696.5C3871.22 696.5 3879.5 704.783 3879.5 715L3879.5 789C3879.5 799.217 3871.22 807.5 3861 807.5L3598 807.5C3587.78 807.5 3579.5 799.217 3579.5 789Z" stroke="#000000" stroke-width="4.58333" stroke-miterlimit="8" fill="#FFFFFF" fill-rule="evenodd"/><text font-family="Yu Gothic,Yu Gothic_MSFontService,sans-serif" font-weight="400" font-size="83" transform="matrix(1 0 0 1 3705.67 778)">2</text><path d="M0.739713-0.875077 494.133 416.196 492.654 417.946-0.739713 0.875077ZM498.768 403.61 510.894 431.864 481.015 424.612Z" transform="matrix(-1 0 0 1 3728.89 807)"/><path d="M2873.31 457.896 3707.19 688.65 3706.58 690.859 2872.69 460.104ZM3706.14 675.281 3728.98 695.867 3698.81 701.785Z"/><path d="M1682 945 1682 1011.63" stroke="#000000" stroke-width="2.29167" stroke-miterlimit="8" fill="none" fill-rule="evenodd"/><path d="M1707 945 1707 1011.63" stroke="#000000" stroke-width="2.29167" stroke-miterlimit="8" fill="none" fill-rule="evenodd"/><path d="M3259 947 3259 1013.63" stroke="#000000" stroke-width="2.29167" stroke-miterlimit="8" fill="none" fill-rule="evenodd"/><path d="M3284 947 3284 1013.63" stroke="#000000" stroke-width="2.29167" stroke-miterlimit="8" fill="none" fill-rule="evenodd"/><path d="M2473 950 2473 1016.63" stroke="#000000" stroke-width="2.29167" stroke-miterlimit="8" fill="none" fill-rule="evenodd"/><path d="M2497 950 2497 1016.63" stroke="#000000" stroke-width="2.29167" stroke-miterlimit="8" fill="none" fill-rule="evenodd"/></g></svg>