<svg width="1459" height="1750" xmlns="http://www.w3.org/2000/svg" xmlns:xlink="http://www.w3.org/1999/xlink" xml:space="preserve" overflow="hidden"><defs><clipPath id="clip0"><rect x="350" y="260" width="1459" height="1750"/></clipPath></defs><g clip-path="url(#clip0)" transform="translate(-350 -260)"><path d="M1.14583-1.19103e-06 1.14617 324.281-1.1455 324.281-1.14583 1.19103e-06ZM13.7503 319.697 0.000360892 347.197-13.7497 319.697Z" transform="matrix(1 0 0 -1 849 1071.2)"/><path d="M718.146 1516.92 718.146 1699.04 715.855 1699.04 715.854 1516.92ZM703.25 1521.5 717 1494 730.75 1521.5Z"/><g><g><g><path d="M796.063 1703.62C803.969 1703.62 818.63 1716.5 833.834 1752.8 846.625 1783.32 854.885 1819.94 854.885 1846.1 854.885 1862.64 851.836 1882.38 837.313 1882.38 817.21 1882.38 809.902 1875.04 799.789 1864.9 786.183 1851.24 769.25 1834.25 717 1834.25 664.75 1834.25 647.817 1851.24 634.211 1864.9 624.095 1875.04 616.79 1882.38 596.688 1882.38 591.124 1882.46 586.083 1879.11 584.02 1873.94 580.325 1865.14 578.647 1855.63 579.112 1846.1 579.112 1819.94 587.362 1783.32 600.163 1752.8 615.367 1716.5 630.031 1703.62 637.938 1703.62 654.094 1703.62 658.655 1706.96 664.451 1711.19 672.876 1717.3 682.422 1724.25 717 1724.25 751.578 1724.25 761.124 1717.3 769.549 1711.19 775.345 1706.96 779.906 1703.62 796.063 1703.62M796.063 1696.75C755.5 1696.75 776.125 1717.38 717 1717.38 657.875 1717.38 678.5 1696.75 637.938 1696.75 594.625 1696.75 539.625 1889.25 596.688 1889.25 649.281 1889.25 629.344 1841.12 717 1841.12 804.656 1841.12 784.719 1889.25 837.313 1889.25 894.375 1889.25 839.375 1696.75 796.063 1696.75Z"/><path d="M806.375 1779.25C806.375 1783.05 803.297 1786.12 799.5 1786.12 795.703 1786.12 792.625 1783.05 792.625 1779.25 792.625 1775.45 795.703 1772.38 799.5 1772.38 803.297 1772.38 806.375 1775.45 806.375 1779.25Z"/><path d="M785.75 1799.88C785.75 1803.67 782.672 1806.75 778.875 1806.75 775.078 1806.75 772 1803.67 772 1799.88 772 1796.08 775.078 1793 778.875 1793 782.672 1793 785.75 1796.08 785.75 1799.88Z"/><path d="M765.125 1779.25C765.125 1783.05 762.047 1786.12 758.25 1786.12 754.453 1786.12 751.375 1783.05 751.375 1779.25 751.375 1775.45 754.453 1772.38 758.25 1772.38 762.047 1772.38 765.125 1775.45 765.125 1779.25Z"/><path d="M785.75 1758.62C785.75 1762.42 782.672 1765.5 778.875 1765.5 775.078 1765.5 772 1762.42 772 1758.62 772 1754.83 775.078 1751.75 778.875 1751.75 782.672 1751.75 785.75 1754.83 785.75 1758.62Z"/><path d="M679.188 1775.81 658.563 1775.81 658.563 1755.19C658.563 1753.29 657.024 1751.75 655.125 1751.75 653.227 1751.75 651.688 1753.29 651.688 1755.19L651.688 1775.81 631.063 1775.81C629.164 1775.81 627.625 1777.35 627.625 1779.25 627.625 1781.15 629.164 1782.69 631.063 1782.69L651.688 1782.69 651.688 1803.31C651.688 1805.21 653.227 1806.75 655.125 1806.75 657.024 1806.75 658.563 1805.21 658.563 1803.31L658.563 1782.69 679.188 1782.69C681.086 1782.69 682.625 1781.15 682.625 1779.25 682.625 1777.35 681.086 1775.81 679.188 1775.81Z"/></g></g></g><text font-family="Yu Gothic,Yu Gothic_MSFontService,sans-serif" font-weight="400" font-size="55" transform="matrix(1 0 0 1 550.502 1960)">コントローラ</text><rect x="594.5" y="391.5" width="745" height="100" stroke="#000000" stroke-width="3.4375" stroke-linejoin="round" stroke-miterlimit="10" fill="none"/><text font-family="Yu Gothic,Yu Gothic_MSFontService,sans-serif" font-weight="400" font-size="55" transform="matrix(1 0 0 1 630.812 458)">クリック音の</text><text font-family="Yu Gothic,Yu Gothic_MSFontService,sans-serif" font-weight="400" font-size="55" transform="matrix(1 0 0 1 960.812 458)">WAV</text><text font-family="Yu Gothic,Yu Gothic_MSFontService,sans-serif" font-weight="400" font-size="55" transform="matrix(1 0 0 1 1082.84 458)">ファイル</text><g><g><g><path d="M1546 1337.13C1473.81 1337.13 1415.37 1395.56 1415.37 1467.75L1415.37 1529.63C1415.37 1535.47 1419.84 1539.94 1425.69 1539.94 1431.53 1539.94 1436 1535.47 1436 1529.63L1436 1526.19 1449.75 1526.19 1449.75 1557.13C1449.75 1564.69 1455.94 1570.88 1463.5 1570.88L1484.12 1570.88C1491.69 1570.88 1497.87 1564.69 1497.87 1557.13L1497.87 1481.5C1497.87 1473.94 1491.69 1467.75 1484.12 1467.75L1463.5 1467.75C1455.94 1467.75 1449.75 1473.94 1449.75 1481.5L1449.75 1512.44 1436 1512.44 1436 1467.75C1436 1407.25 1485.5 1357.75 1546 1357.75 1606.5 1357.75 1656 1407.25 1656 1467.75L1656 1512.44 1642.25 1512.44 1642.25 1481.5C1642.25 1473.94 1636.06 1467.75 1628.5 1467.75L1607.87 1467.75C1600.31 1467.75 1594.12 1473.94 1594.12 1481.5L1594.12 1557.13C1594.12 1564.69 1600.31 1570.88 1607.87 1570.88L1628.5 1570.88C1636.06 1570.88 1642.25 1564.69 1642.25 1557.13L1642.25 1526.19 1656 1526.19 1656 1529.63C1656 1535.47 1660.47 1539.94 1666.31 1539.94 1672.16 1539.94 1676.62 1535.47 1676.62 1529.63L1676.62 1467.75C1676.62 1395.56 1618.19 1337.13 1546 1337.13Z"/></g></g></g><text font-family="Yu Gothic,Yu Gothic_MSFontService,sans-serif" font-weight="400" font-size="55" transform="matrix(1 0 0 1 1413.92 1645)">ヘッドホン</text><rect x="434.5" y="1394.5" width="567" height="100" stroke="#000000" stroke-width="3.4375" stroke-linejoin="round" stroke-miterlimit="10" fill="#FFFFFF"/><text font-family="Yu Gothic,Yu Gothic_MSFontService,sans-serif" font-weight="400" font-size="55" transform="matrix(1 0 0 1 467.197 1462)">パルスジェネレータ</text><rect x="656.5" y="557.5" width="622" height="167" stroke="#000000" stroke-width="3.4375" stroke-linejoin="round" stroke-miterlimit="10" fill="none"/><text font-family="Yu Gothic,Yu Gothic_MSFontService,sans-serif" font-weight="400" font-size="55" transform="matrix(1 0 0 1 691.828 625)">音響信号への遅延生成</text><text font-family="Yu Gothic,Yu Gothic_MSFontService,sans-serif" font-weight="400" font-size="55" transform="matrix(1 0 0 1 746.828 691)">アプリケーション</text><path d="M401.5 418.336C401.5 358.78 449.78 310.5 509.336 310.5L1425.66 310.5C1485.22 310.5 1533.5 358.78 1533.5 418.336L1533.5 849.664C1533.5 909.22 1485.22 957.5 1425.66 957.5L509.336 957.5C449.78 957.5 401.5 909.22 401.5 849.664Z" stroke="#000000" stroke-width="4.58333" stroke-miterlimit="8" fill="none" fill-rule="evenodd"/><rect x="863" y="260" width="141" height="100" fill="#FFFFFF"/><text font-family="Yu Gothic,Yu Gothic_MSFontService,sans-serif" font-weight="400" font-size="55" transform="matrix(1 0 0 1 896.159 327)">PC</text><path d="M1086.15 734 1086.15 743.167 1083.85 743.167 1083.85 734ZM1086.15 750.042 1086.15 759.208 1083.85 759.208 1083.85 750.042ZM1086.15 766.083 1086.15 775.25 1083.85 775.25 1083.85 766.083ZM1086.15 782.125 1086.15 791.292 1083.85 791.292 1083.85 782.125ZM1086.15 798.167 1086.15 807.333 1083.85 807.333 1083.85 798.167ZM1086.15 814.208 1086.15 823.375 1083.85 823.375 1083.85 814.208ZM1086.15 830.25 1086.15 839.417 1083.85 839.417 1083.85 830.25ZM1086.15 846.292 1086.15 855.458 1083.85 855.458 1083.85 846.292ZM1086.15 862.333 1086.15 871.5 1083.85 871.5 1083.85 862.333ZM1086.15 878.375 1086.15 887.542 1083.85 887.542 1083.85 878.375ZM1086.15 894.417 1086.15 903.583 1083.85 903.583 1083.85 894.417ZM1086.15 910.458 1086.15 919.625 1083.85 919.625 1083.85 910.458ZM1086.15 926.5 1086.15 935.667 1083.85 935.667 1083.85 926.5ZM1086.15 942.542 1086.15 951.708 1083.85 951.708 1083.85 942.542ZM1086.15 958.583 1086.15 967.75 1083.85 967.75 1083.85 958.583ZM1086.15 974.625 1086.15 983.792 1083.85 983.792 1083.85 974.625ZM1086.15 990.667 1086.15 999.833 1083.85 999.833 1083.85 990.667ZM1086.15 1006.71 1086.15 1015.87 1083.85 1015.87 1083.85 1006.71ZM1086.15 1022.75 1086.15 1031.92 1083.85 1031.92 1083.85 1022.75ZM1086.15 1038.79 1086.15 1047.96 1083.85 1047.96 1083.85 1038.79ZM1098.75 1043.66 1085 1071.16 1071.25 1043.66Z"/><text font-family="Yu Gothic,Yu Gothic_MSFontService,sans-serif" font-weight="400" font-size="55" transform="matrix(1 0 0 1 383.623 1639)">ボタン押下</text><text font-family="Yu Gothic,Yu Gothic_MSFontService,sans-serif" font-weight="400" font-size="55" transform="matrix(1 0 0 1 487.243 830)">ボタン押下</text><text font-family="Yu Gothic,Yu Gothic_MSFontService,sans-serif" font-weight="400" font-size="55" transform="matrix(1 0 0 1 487.243 896)">間隔の記録</text><path d="M1085 1238.85 1089.47 1238.85 1089.47 1245.85 1087.18 1245.85 1087.18 1240 1088.32 1241.15 1085 1241.15ZM1089.47 1252.72 1089.47 1261.89 1087.18 1261.89 1087.18 1252.72ZM1089.47 1268.76 1089.47 1277.93 1087.18 1277.93 1087.18 1268.76ZM1089.47 1284.8 1089.47 1293.97 1087.18 1293.97 1087.18 1284.8ZM1089.47 1300.85 1089.47 1310.01 1087.18 1310.01 1087.18 1300.85ZM1089.47 1316.89 1089.47 1326.05 1087.18 1326.05 1087.18 1316.89ZM1089.47 1332.93 1089.47 1342.1 1087.18 1342.1 1087.18 1332.93ZM1089.47 1348.97 1089.47 1358.14 1087.18 1358.14 1087.18 1348.97ZM1089.47 1365.01 1089.47 1374.18 1087.18 1374.18 1087.18 1365.01ZM1089.47 1381.05 1089.47 1390.22 1087.18 1390.22 1087.18 1381.05ZM1089.47 1397.1 1089.47 1406.26 1087.18 1406.26 1087.18 1397.1ZM1089.47 1413.14 1089.47 1422.3 1087.18 1422.3 1087.18 1413.14ZM1089.47 1429.18 1089.47 1438.35 1087.18 1438.35 1087.18 1429.18ZM1089.47 1445.22 1089.47 1454.39 1087.18 1454.39 1087.18 1445.22ZM1089.47 1461.26 1089.47 1462.51 1088.32 1461.36 1096.24 1461.36 1096.24 1463.65 1087.18 1463.65 1087.18 1461.26ZM1103.12 1461.36 1112.29 1461.36 1112.29 1463.65 1103.12 1463.65ZM1119.16 1461.36 1128.33 1461.36 1128.33 1463.65 1119.16 1463.65ZM1135.2 1461.36 1144.37 1461.36 1144.37 1463.65 1135.2 1463.65ZM1151.24 1461.36 1160.41 1461.36 1160.41 1463.65 1151.24 1463.65ZM1167.29 1461.36 1176.45 1461.36 1176.45 1463.65 1167.29 1463.65ZM1183.33 1461.36 1192.49 1461.36 1192.49 1463.65 1183.33 1463.65ZM1199.37 1461.36 1208.54 1461.36 1208.54 1463.65 1199.37 1463.65ZM1215.41 1461.36 1224.58 1461.36 1224.58 1463.65 1215.41 1463.65ZM1231.45 1461.36 1240.62 1461.36 1240.62 1463.65 1231.45 1463.65ZM1247.49 1461.36 1256.66 1461.36 1256.66 1463.65 1247.49 1463.65ZM1263.54 1461.36 1272.7 1461.36 1272.7 1463.65 1263.54 1463.65ZM1279.58 1461.36 1288.74 1461.36 1288.74 1463.65 1279.58 1463.65ZM1295.62 1461.36 1304.79 1461.36 1304.79 1463.65 1295.62 1463.65ZM1311.66 1461.36 1320.83 1461.36 1320.83 1463.65 1311.66 1463.65ZM1327.7 1461.36 1336.87 1461.36 1336.87 1463.65 1327.7 1463.65ZM1343.74 1461.36 1352.91 1461.36 1352.91 1463.65 1343.74 1463.65ZM1359.79 1461.36 1368.95 1461.36 1368.95 1463.65 1359.79 1463.65ZM1365.85 1448.76 1393.35 1462.51 1365.85 1476.26Z"/><text font-family="Yu Gothic,Yu Gothic_MSFontService,sans-serif" font-weight="400" font-size="55" transform="matrix(1 0 0 1 1137.85 1365)">出力音声</text><g><g><g><path d="M70.5002 120.636 70.5002 20.3643 33.2496 51.4064 4.40626 51.4064 4.40626 89.5939 33.2496 89.5939ZM7.34377 54.3439 34.313 54.3439 67.5626 26.6358 67.5626 114.364 34.313 86.6564 7.34377 86.6564Z" transform="matrix(1.00709 0 0 1 1482 997)"/><path d="M121.907 70.5002C121.953 56.4871 116.227 43.0732 106.076 33.4127L104.042 35.5321C123.354 54.0309 124.014 84.6827 105.515 103.995 105.035 104.497 104.544 104.988 104.042 105.468L106.076 107.588C116.227 97.9271 121.953 84.5132 121.907 70.5002Z" transform="matrix(1.00709 0 0 1 1482 997)"/><path d="M92.6284 94.034 94.642 96.174C108.821 82.8553 109.519 60.5639 96.2002 46.3845 95.6972 45.849 95.1775 45.3294 94.642 44.8263L92.6284 46.9663C105.626 59.1712 106.268 79.6017 94.0632 92.5992 93.6001 93.0924 93.1216 93.5709 92.6284 94.034Z" transform="matrix(1.00709 0 0 1 1482 997)"/><path d="M89.5939 70.5002C89.585 65.0476 87.2467 59.8587 83.1681 56.24L81.2176 58.4432C87.8806 64.3315 88.5085 74.5065 82.62 81.1695 82.1819 81.6653 81.7135 82.1336 81.2176 82.5718L83.1681 84.775C87.25 81.1524 89.5885 75.9576 89.5939 70.5002Z" transform="matrix(1.00709 0 0 1 1482 997)"/></g></g></g><text font-family="Yu Gothic,Yu Gothic_MSFontService,sans-serif" font-weight="400" font-size="55" transform="matrix(1 0 0 1 1333.09 1178)">電子メトロノーム</text><text font-family="Yu Gothic,Yu Gothic_MSFontService,sans-serif" font-weight="400" font-size="55" transform="matrix(1 0 0 1 1349.98 1244)">(</text><text font-family="Yu Gothic,Yu Gothic_MSFontService,sans-serif" font-weight="400" font-size="55" transform="matrix(1 0 0 1 1371.17 1244)">テンポの提示）</text><rect x="678.5" y="1071.5" width="511" height="167" stroke="#000000" stroke-width="3.4375" stroke-linejoin="round" stroke-miterlimit="10" fill="#FFFFFF"/><text font-family="Yu Gothic,Yu Gothic_MSFontService,sans-serif" font-weight="400" font-size="55" transform="matrix(1 0 0 1 796.006 1139)">オーディオ</text><text font-family="Yu Gothic,Yu Gothic_MSFontService,sans-serif" font-weight="400" font-size="55" transform="matrix(1 0 0 1 713.506 1205)">インターフェース</text><path d="M715.854 1394.06 715.854 1315.88 848.419 1315.88 847.273 1317.03 847.273 1262.92 849.565 1262.92 849.565 1318.18 717 1318.18 718.146 1317.03 718.146 1394.06ZM834.669 1267.5 848.419 1240 862.169 1267.5Z"/></g></svg>